<svg width="50" height="50" viewBox="0 0 50 50" fill="none" xmlns="http://www.w3.org/2000/svg">
<rect width="50" height="50" rx="25" fill="black" fill-opacity="0.05"/>
<path d="M13.334 41.4688V36.2734C13.334 33.512 15.5726 31.2734 18.334 31.2734H24.1681H30.0022C32.7637 31.2734 35.0022 33.512 35.0022 36.2734V41.4688" stroke="#777777" stroke-width="3"/>
<mask id="path-3-outside-1_10_8" maskUnits="userSpaceOnUse" x="13.6094" y="7.33203" width="21" height="21" fill="black">
<rect fill="white" x="13.6094" y="7.33203" width="21" height="21"/>
<path d="M33.7284 17.8902C33.7284 23.1691 29.4485 27.4484 24.1689 27.4484C18.8893 27.4484 14.6094 23.1691 14.6094 17.8902C14.6094 12.6114 18.8893 8.33203 24.1689 8.33203C29.4485 8.33203 33.7284 12.6114 33.7284 17.8902ZM17.1904 17.8902C17.1904 21.7438 20.3148 24.8677 24.1689 24.8677C28.023 24.8677 31.1474 21.7438 31.1474 17.8902C31.1474 14.0367 28.023 10.9127 24.1689 10.9127C20.3148 10.9127 17.1904 14.0367 17.1904 17.8902Z"/>
</mask>
<path d="M33.7284 17.8902C33.7284 23.1691 29.4485 27.4484 24.1689 27.4484C18.8893 27.4484 14.6094 23.1691 14.6094 17.8902C14.6094 12.6114 18.8893 8.33203 24.1689 8.33203C29.4485 8.33203 33.7284 12.6114 33.7284 17.8902ZM17.1904 17.8902C17.1904 21.7438 20.3148 24.8677 24.1689 24.8677C28.023 24.8677 31.1474 21.7438 31.1474 17.8902C31.1474 14.0367 28.023 10.9127 24.1689 10.9127C20.3148 10.9127 17.1904 14.0367 17.1904 17.8902Z" fill="#777777"/>
<path d="M33.7284 17.8902C33.7284 23.1691 29.4485 27.4484 24.1689 27.4484C18.8893 27.4484 14.6094 23.1691 14.6094 17.8902C14.6094 12.6114 18.8893 8.33203 24.1689 8.33203C29.4485 8.33203 33.7284 12.6114 33.7284 17.8902ZM17.1904 17.8902C17.1904 21.7438 20.3148 24.8677 24.1689 24.8677C28.023 24.8677 31.1474 21.7438 31.1474 17.8902C31.1474 14.0367 28.023 10.9127 24.1689 10.9127C20.3148 10.9127 17.1904 14.0367 17.1904 17.8902Z" stroke="#777777" stroke-width="0.6" mask="url(#path-3-outside-1_10_8)"/>
</svg>
