<svg width="50" height="50" viewBox="0 0 50 50" fill="none" xmlns="http://www.w3.org/2000/svg">
<rect width="50" height="50" rx="25" fill="black" fill-opacity="0.05"/>
<path d="M29.5 10.0039H35C37.7614 10.0039 40 12.2425 40 15.0039V20.5039M29.5 10.0039V40.0039M29.5 10.0039H20.5M29.5 40.0039H35C37.7614 40.0039 40 37.7653 40 35.0039V29.5039M29.5 40.0039H20.5M20.5 10.0039H15C12.2386 10.0039 10 12.2425 10 15.0039V20.5039M20.5 10.0039V40.0039M20.5 40.0039H15C12.2386 40.0039 10 37.7653 10 35.0039V29.5039M10 20.5039H40M10 20.5039V29.5039M40 20.5039V29.5039M10 29.5039H40" stroke="#7E3234" stroke-width="3"/>
</svg>
