<svg width="50" height="50" viewBox="0 0 50 50" fill="none" xmlns="http://www.w3.org/2000/svg">
<rect width="50" height="50" rx="25" fill="black" fill-opacity="0.05"/>
<path d="M34.9572 30.9175C25.3059 30.9175 19.4154 25.1575 19.4154 15.8875C19.4154 13.21 19.9818 10.825 20.6161 9.65499C20.9106 9.09249 20.956 8.82246 20.956 8.41747C20.956 7.78751 20.3442 7 19.506 7C19.3701 7 18.9849 7.04497 18.4185 7.24749C11.7804 9.94746 7 16.6975 7 24.37C7 34.6525 15.4053 43 25.759 43C32.9862 43 39.511 38.995 42.7055 32.29C42.9774 31.75 43 31.3225 43 31.12C43 30.2875 42.275 29.7475 41.686 29.7475C41.3462 29.7475 41.1422 29.77 40.6665 29.95C39.1259 30.535 37.0642 30.9175 34.9572 30.9175ZM10.1718 24.235C10.1718 18.97 12.8452 13.93 17.2404 10.9825C16.674 12.5575 16.4021 14.245 16.4021 16.2025C16.4021 27.295 23.0629 33.8425 34.4588 33.8425C36.2259 33.8425 37.6759 33.6625 39.1259 33.145C36.4751 37.3525 31.4682 39.895 25.8949 39.895C16.8326 39.895 10.1718 33.28 10.1718 24.235Z" fill="#006AFF"/>
</svg>
