<svg width="50" height="50" viewBox="0 0 50 50" fill="none" xmlns="http://www.w3.org/2000/svg">
<rect width="50" height="50" rx="25" fill="black" fill-opacity="0.05"/>
<path d="M37.5 25C37.5 31.9036 31.9036 37.5 25 37.5C18.0964 37.5 12.5 31.9036 12.5 25C12.5 18.0964 18.0964 12.5 25 12.5C31.9036 12.5 37.5 18.0964 37.5 25ZM15.625 25C15.625 30.1777 19.8223 34.375 25 34.375C30.1777 34.375 34.375 30.1777 34.375 25C34.375 19.8223 30.1777 15.625 25 15.625C19.8223 15.625 15.625 19.8223 15.625 25Z" fill="#FFAE00"/>
<path d="M28.75 8.125C28.75 9.85089 27.3509 11.25 25.625 11.25C23.8991 11.25 22.5 9.85089 22.5 8.125C22.5 6.39911 23.8991 5 25.625 5C27.3509 5 28.75 6.39911 28.75 8.125Z" fill="#FFAE00"/>
<path d="M16.25 36.875C16.25 38.6009 14.8509 40 13.125 40C11.3991 40 10 38.6009 10 36.875C10 35.1491 11.3991 33.75 13.125 33.75C14.8509 33.75 16.25 35.1491 16.25 36.875Z" fill="#FFAE00"/>
<path d="M16.25 13.125C16.25 14.8509 14.8509 16.25 13.125 16.25C11.3991 16.25 10 14.8509 10 13.125C10 11.3991 11.3991 10 13.125 10C14.8509 10 16.25 11.3991 16.25 13.125Z" fill="#FFAE00"/>
<path d="M40 36.875C40 38.6009 38.6009 40 36.875 40C35.1491 40 33.75 38.6009 33.75 36.875C33.75 35.1491 35.1491 33.75 36.875 33.75C38.6009 33.75 40 35.1491 40 36.875Z" fill="#FFAE00"/>
<path d="M40 13.125C40 14.8509 38.6009 16.25 36.875 16.25C35.1491 16.25 33.75 14.8509 33.75 13.125C33.75 11.3991 35.1491 10 36.875 10C38.6009 10 40 11.3991 40 13.125Z" fill="#FFAE00"/>
<path d="M11.25 25.625C11.25 27.3509 9.85089 28.75 8.125 28.75C6.39911 28.75 5 27.3509 5 25.625C5 23.8991 6.39911 22.5 8.125 22.5C9.85089 22.5 11.25 23.8991 11.25 25.625Z" fill="#FFAE00"/>
<path d="M45 24.375C45 26.1009 43.6009 27.5 41.875 27.5C40.1491 27.5 38.75 26.1009 38.75 24.375C38.75 22.6491 40.1491 21.25 41.875 21.25C43.6009 21.25 45 22.6491 45 24.375Z" fill="#FFAE00"/>
<path d="M28.75 41.875C28.75 43.6009 27.3509 45 25.625 45C23.8991 45 22.5 43.6009 22.5 41.875C22.5 40.1491 23.8991 38.75 25.625 38.75C27.3509 38.75 28.75 40.1491 28.75 41.875Z" fill="#FFAE00"/>
</svg>
